<svg version="1" xmlns="http://www.w3.org/2000/svg" width="100" height="100" viewBox="0 0 100 100" preserveAspectRatio="xMidYMid meet">
  <g transform="translate(0,100) scale(0.1,-0.1)">
    <path d="M564 976c-16-13-40-46-53-73-14-26-26-50-28-52-2-3-10 5-19 17-16 23-70 42-121 42-17 0-35 5-38 10-11 19-33 11-28-10 11-40 49-69 102-76 28-4 51-11 51-17 0-6-3-8-6-4-11 11-57-20-117-77-40-39-52-56-40-57 10 0 27-2 38-5 46-9 97 8 134 46l37 38 1-52c1-56 18-99 52-130 27-25 38-14 44 43 4 40-6 99-28 156-7 18-6 18 9-2 36-48 93-83 145-89 28-3 57-1 66 3 12 7 8 15-25 38-22 17-40 34-40 38 0 4-15 14-32 22l-33 14 33 1c42 0 65 13 90 47l20 28-82 0c-84 0-136-10-136-27 0-5-4-7-9-3-14 8 15 84 41 112 33 35 9 51-28 19z"/>
    <path d="M189 834c-126-58-185-167-186-344-2-174 73-308 227-408 105-68 268-100 372-71 24 6 52 13 62 15 48 9 136 64 191 119 103 102 148 230 141 398-4 104-23 160-74 218-37 43-113 81-120 60-2-7-18-21-34-31l-30-18 51-23c54-25 57-35 24-85-24-37-124-49-171-20-6 3-12-16-16-47-9-72-37-117-68-110-42 10-86 52-104 99-14 38-21 45-38 40-52-15-105-17-146-6-45 12-100 53-100 75 0 6 22 21 49 33 26 12 57 32 67 43 18 21 18 21-4 39-12 10-22 23-22 29 0 20-18 19-71-5z"/>
  </g>
</svg>
